<svg width="1557" height="1557" viewBox="0 0 1557 1557" fill="none" xmlns="http://www.w3.org/2000/svg">
<g clip-path="url(#clip0_7_2)">
<path d="M1557 0H0V1557H1557V0Z" fill="black"/>
<path fill-rule="evenodd" clip-rule="evenodd" d="M1067.48 1103.64L997.311 1103.57L802.122 1103.35H791.3L791.283 1103.42H790.892L790.502 1103.43L780.988 1103L773.682 1102.19L766.887 1101.05C766.309 1100.94 765.714 1100.82 765.137 1100.68L754.332 1097.91L746.703 1095.32C744.682 1094.56 742.677 1093.74 740.723 1092.89L736.578 1091.01L732.28 1088.86L727.811 1086.41L725.518 1085.06L715.358 1078.27L710.126 1074.2C708.053 1072.49 706.031 1070.73 704.06 1068.91L699.49 1064.46L692.644 1056.92C690.724 1054.63 688.889 1052.28 687.122 1049.85C677.914 1037.26 671.135 1023.41 666.735 1008.36C665.036 1002.54 663.779 996.656 662.879 990.651L662.386 986.999L661.604 977.498L661.502 968.984L661.519 968.845L661.553 967.617L661.74 963.013L662.199 957.025L662.76 952.318L663.082 950.103L664.696 941.537L667.041 932.624C667.228 932.018 667.381 931.43 667.585 930.859L668.723 927.415L668.961 926.705L670.167 923.4L671.237 920.631L673.157 916.183L675.468 911.32L678.237 906.042L679.902 903.152L681.346 900.677L893.677 526.971L894.578 525.154L896.158 522.506L897.619 520.222L897.924 519.703L902.613 512.711L902.63 512.677L907.014 506.879C907.319 506.498 907.625 506.135 907.914 505.754L909.902 503.418L916.46 496.322C916.799 495.994 917.122 495.682 917.445 495.336L924.564 488.864C924.92 488.569 925.26 488.275 925.6 487.998L930.34 484.26L933.126 482.218C933.5 481.958 933.874 481.699 934.23 481.457L942.13 476.386C942.521 476.144 942.912 475.919 943.286 475.694L951.576 471.298C951.984 471.108 952.392 470.917 952.8 470.727L955.229 469.585L964.013 466.054C964.437 465.898 964.862 465.76 965.287 465.587L968.668 464.462L978.504 461.745L979.88 461.434L984.009 460.586L986.999 460.066C991.858 459.27 997.04 458.734 1001.95 458.509L1014.76 458.595L1020.74 459.063L1025.04 459.582C1025.6 459.651 1026.16 459.738 1026.7 459.824L1038.87 462.281C1039.48 462.437 1040.09 462.593 1040.68 462.749L1048.11 464.981C1050.05 465.639 1051.98 466.331 1053.92 467.093L1057.93 468.737L1059.97 469.637C1061.39 470.277 1062.79 470.934 1064.16 471.609L1070.52 474.898L1075.34 477.788L1079.03 480.193C1084.52 483.897 1089.33 487.617 1094.27 492.117C1096.68 494.315 1098.99 496.582 1101.2 498.936L1105.33 503.522C1107.13 505.598 1108.85 507.744 1110.49 509.925C1117.54 519.305 1123.18 529.238 1127.65 540.28L1127.67 540.297L1130.63 548.344C1133.12 555.89 1134.96 563.66 1136.1 571.534L1137.25 582.835L1137.47 590.363L1137.29 598.168L1136.69 605.316L1136.32 608.517L1134.69 618.105L1134.19 620.355L1132.87 625.771C1132.7 626.394 1132.53 626.983 1132.36 627.606L1129.56 636.259C1129.35 636.813 1129.16 637.366 1128.96 637.92L1127.7 641.139L1127.23 642.316L1125.02 647.3L1124.7 647.992L1121.72 653.945L1121.52 654.344L1119.14 658.739L1117.6 661.439L1000.45 867.588L975.514 911.511L970.061 920.942C969.789 921.341 969.5 921.756 969.211 922.154L968.328 923.279L964.403 927.276C964.047 927.571 963.707 927.848 963.35 928.142C961.583 929.492 959.629 930.686 957.625 931.62C957.217 931.811 956.809 931.984 956.384 932.157L955.297 932.572L949.742 934.043C949.266 934.112 948.79 934.199 948.314 934.251L946.853 934.372C946.344 934.407 945.834 934.441 945.341 934.441L940.55 934.112C939.973 934.026 939.395 933.939 938.835 933.818C936.184 933.282 933.534 932.33 931.104 931.049L929.524 930.149C927.112 928.713 924.937 926.965 923.069 925.009V924.992C919.518 921.254 917.02 916.737 915.661 911.891L914.795 907.617C914.523 905.679 914.438 903.706 914.54 901.733C914.625 900.244 914.812 898.756 915.101 897.285C915.355 896.022 915.661 894.776 916.086 893.564C916.256 893.011 916.46 892.474 916.681 891.903L918.821 887.525L948.909 834.551L1067.36 626.083L1067.41 626.1L1068.63 623.868C1068.89 623.4 1069.12 622.898 1069.36 622.431L1071.16 618.468L1073.75 611.148L1074.26 609.313C1074.78 607.375 1075.21 605.402 1075.55 603.429L1076.06 600.02L1076.52 594.638L1076.4 585.812C1076.12 582.074 1075.55 578.318 1074.7 574.667C1073.63 569.994 1072.08 565.46 1070.13 561.116C1067.99 556.392 1065.35 551.909 1062.26 547.773L1058.29 542.927C1057.1 541.63 1055.87 540.349 1054.58 539.12C1051.22 535.919 1047.53 533.063 1043.61 530.606C1043.27 530.398 1042.93 530.173 1042.57 529.965L1041.28 529.221L1036.91 526.937L1034.84 525.985C1034.21 525.708 1033.57 525.431 1032.92 525.172L1028.96 523.735L1026.48 522.991L1021.71 521.797C1021.13 521.693 1020.55 521.572 1019.98 521.468L1014.96 520.776L1012.41 520.551L1010.16 520.43L1005.53 520.447L1002.56 520.62C1002.05 520.655 1001.58 520.689 1001.08 520.741L996.785 521.312L992.622 522.126L989.921 522.783L988.596 523.164L985.98 523.977C985.555 524.133 985.13 524.272 984.688 524.427L978.453 526.989C977.638 527.369 976.839 527.785 976.041 528.183C975.65 528.39 975.259 528.598 974.852 528.806C974.07 529.238 973.289 529.671 972.524 530.138L966.918 533.842C966.204 534.361 965.474 534.915 964.76 535.469C964.403 535.763 964.047 536.04 963.707 536.334L961.651 538.116L956.707 542.997L954.838 545.143C954.533 545.506 954.227 545.887 953.921 546.25C953.004 547.375 952.12 548.552 951.288 549.746L948.807 553.536L948.009 554.851L947.244 556.201L734.097 931.309L731.804 935.428C731.549 935.895 731.311 936.345 731.056 936.812L730.309 938.231C730.071 938.716 729.816 939.2 729.595 939.685L728.899 941.173C728.661 941.675 728.44 942.194 728.219 942.713L726.367 947.594L725.28 951.124L724.634 953.582L723.547 958.964L723.105 962.079L722.63 968.292L722.596 971.061L723.173 979.454L724.77 987.934L726.826 994.77C729.595 1002.57 733.707 1009.9 739.024 1016.33L743.136 1020.88C746.601 1024.4 750.441 1027.5 754.552 1030.18L756.914 1031.67L759.309 1033.17L764.848 1035.85L768.382 1037.26C772.289 1038.68 776.265 1039.75 780.342 1040.42L790.094 1041.32C790.519 1041.32 790.943 1041.34 791.368 1041.34L791.351 1041.39L1008.22 1041.63L1032.07 1041.65H1032.39L1102.56 1041.72L1140.58 1041.77L1147.8 1041.79L1215.64 1041.86H1220.53L1223.15 1041.82V1041.86H1223.34L1230.73 1041.34C1231.22 1041.27 1231.68 1041.22 1232.15 1041.13C1233.56 1040.92 1234.97 1040.67 1236.35 1040.39L1238.61 1039.85L1240.41 1039.37L1244.33 1038.14C1245.2 1037.84 1246.05 1037.53 1246.88 1037.2C1247.31 1037.03 1247.72 1036.88 1248.14 1036.68C1248.97 1036.36 1249.81 1035.98 1250.6 1035.61L1254.21 1033.79C1254.99 1033.38 1255.79 1032.95 1256.55 1032.5C1256.94 1032.27 1257.31 1032.05 1257.69 1031.8L1259.95 1030.35L1262.73 1028.4L1265.38 1026.34C1265.74 1026.04 1266.08 1025.75 1266.42 1025.45L1268.48 1023.64L1270.48 1021.73L1271.45 1020.75C1271.79 1020.42 1272.1 1020.09 1272.42 1019.74L1276.14 1015.42L1278.77 1011.9C1279.06 1011.49 1279.33 1011.09 1279.62 1010.67L1280.44 1009.41C1280.73 1008.98 1280.98 1008.55 1281.25 1008.11L1282.82 1005.43L1284.94 1001.28L1286.98 996.466L1288.71 991.343C1288.9 990.738 1289.07 990.132 1289.22 989.509C1289.73 987.588 1290.17 985.615 1290.53 983.642L1291.16 979.298L1291.41 976.547L1291.53 974.522L1291.5 969.019C1291.43 966.873 1291.26 964.779 1291 962.702C1289.58 951.141 1285.3 940.152 1278.64 930.668C1277.33 928.834 1275.97 927.051 1274.49 925.321L1270.53 921.046L1269.27 919.818L1263.5 914.903C1260.71 912.757 1257.62 910.784 1254.53 909.088L1250.25 906.942L1242.38 903.913L1240.53 903.377L1236.94 902.477L1234.99 902.079L1233.5 901.819L1226.9 901.058L1222.2 900.902C1221.18 900.919 1220.18 900.937 1219.16 900.989L1216.2 901.196L1214.88 901.335L1212.11 901.698L1206.35 902.823L1201.03 904.329C1200.6 904.467 1200.18 904.606 1199.75 904.779L1197.21 905.73L1193.5 907.34L1191.41 908.361L1191.07 908.534L1188.73 909.815C1188.34 910.04 1187.96 910.265 1187.57 910.49L1181.98 914.21C1181.61 914.487 1181.25 914.764 1180.9 915.041L1179.86 915.854L1175.7 919.471C1175.36 919.8 1175.04 920.112 1174.7 920.423L1172.74 922.431C1172.1 923.106 1171.47 923.815 1170.84 924.525L1169 926.723L1167.24 929.024L1164.26 933.42L1165.59 931.084L1160.15 940.498C1159.88 940.914 1159.59 941.329 1159.3 941.727L1158.42 942.852L1154.5 946.832C1154.14 947.126 1153.8 947.403 1153.44 947.698C1151.68 949.065 1149.72 950.242 1147.72 951.176C1147.31 951.384 1146.9 951.557 1146.48 951.73L1145.37 952.145L1139.83 953.616C1139.36 953.737 1138.87 953.755 1138.41 953.807L1136.93 953.945C1136.44 953.98 1135.93 953.997 1135.43 954.014L1130.63 953.685C1130.07 953.599 1129.49 953.495 1128.93 953.391C1126.28 952.837 1123.63 951.903 1121.2 950.605L1119.62 949.722C1117.19 948.269 1115.03 946.521 1113.16 944.565V944.548C1109.61 940.827 1107.11 936.31 1105.75 931.465L1104.87 927.19C1104.48 925.286 1104.53 923.279 1104.63 921.306C1104.7 919.818 1104.9 918.312 1105.19 916.841C1105.45 915.595 1105.75 914.349 1106.16 913.137C1106.35 912.584 1106.55 912.03 1106.77 911.476L1108.91 907.08L1113.31 899.327L1114.23 897.891C1115.05 896.645 1115.88 895.416 1116.75 894.187L1118.05 892.388L1119.38 890.622C1120.25 889.446 1121.15 888.321 1122.05 887.196L1123.17 885.846L1124.82 883.908L1127.64 880.741C1127.96 880.395 1128.28 880.066 1128.6 879.702C1129.56 878.699 1130.54 877.695 1131.53 876.708C1131.85 876.38 1132.17 876.068 1132.51 875.739L1135.52 872.901C1135.88 872.59 1136.2 872.278 1136.54 871.966L1139.63 869.284L1143.86 865.857C1144.23 865.598 1144.57 865.321 1144.95 865.044L1148.21 862.656C1148.58 862.396 1148.94 862.154 1149.31 861.894L1153.8 858.918L1161.89 854.176C1162.28 853.951 1162.67 853.761 1163.08 853.536C1164.26 852.93 1165.45 852.307 1166.66 851.718C1167.07 851.528 1167.46 851.338 1167.87 851.13C1169.09 850.559 1170.31 850.005 1171.54 849.469C1171.96 849.278 1172.35 849.105 1172.78 848.932C1174.03 848.413 1175.27 847.911 1176.55 847.427C1176.97 847.254 1177.38 847.098 1177.82 846.942L1181.66 845.592L1186.89 843.948L1190.9 842.858L1194.96 841.889C1195.42 841.785 1195.88 841.698 1196.34 841.594C1197.72 841.318 1199.11 841.058 1200.5 840.798L1202.63 840.452L1209.08 839.604C1209.57 839.535 1210.05 839.5 1210.54 839.449L1214.98 839.12C1215.98 839.05 1216.97 838.999 1217.98 838.981L1222.64 838.895L1230.39 839.137C1230.91 839.172 1231.44 839.206 1231.98 839.241L1236.86 839.708L1242.33 840.435L1242.98 840.556L1246.98 841.266C1247.56 841.369 1248.14 841.491 1248.72 841.612L1250.47 841.975L1256.58 843.498L1261.37 844.935L1263.26 845.558L1267.12 846.925C1269.14 847.669 1271.13 848.482 1273.1 849.33L1277.23 851.199L1280.98 853.051L1288.27 857.101L1298.11 863.625C1302.13 866.567 1305.95 869.699 1309.62 873.091L1314.48 877.816L1320.85 884.808C1323.93 888.424 1326.8 892.197 1329.47 896.143C1334.55 903.636 1338.79 911.511 1342.28 919.973C1344.35 924.975 1345.76 929.18 1347.22 934.164L1348.58 939.321C1349.92 944.807 1350.72 949.532 1351.49 955.451L1352.25 964.882L1352.34 973.622V973.795L1352.06 980.389L1351.62 985.546C1351.47 987.051 1351.3 988.54 1351.08 990.028L1349.65 998.404L1347.85 1006.11C1347.7 1006.71 1347.53 1007.35 1347.36 1007.96L1344.59 1016.66C1344.38 1017.23 1344.2 1017.77 1343.98 1018.32L1342.72 1021.58L1342.43 1022.29L1339.36 1029.24L1337.93 1032.17C1337.69 1032.65 1337.45 1033.12 1337.2 1033.59L1336.5 1034.92L1334.16 1039.11L1333.38 1040.44L1330.25 1045.39L1325.68 1051.88L1322.26 1056.24L1319.49 1059.51C1319.19 1059.88 1318.88 1060.22 1318.56 1060.57L1316.67 1062.66L1314.16 1065.27L1309.76 1069.51C1309.42 1069.84 1309.08 1070.14 1308.74 1070.45L1301.44 1076.58C1301.08 1076.85 1300.74 1077.13 1300.38 1077.41L1292.67 1082.84C1292.3 1083.1 1291.92 1083.32 1291.55 1083.57L1283.46 1088.34C1283.05 1088.55 1282.66 1088.76 1282.27 1088.97L1275.03 1092.5L1273.79 1093.03C1273.39 1093.22 1272.98 1093.4 1272.57 1093.59L1271.89 1093.86L1266.27 1096.06C1265.83 1096.2 1265.4 1096.36 1264.99 1096.51L1255.82 1099.35C1255.36 1099.47 1254.92 1099.59 1254.48 1099.71L1251.39 1100.47L1244.86 1101.79C1244.39 1101.88 1243.93 1101.95 1243.45 1102.03L1237.37 1102.88L1236.28 1103.02L1234.41 1103.19L1230.4 1103.49C1229.89 1103.52 1229.42 1103.54 1228.91 1103.57L1227.41 1103.64L1221.55 1103.73V1103.78L1219.73 1103.73L1094.86 1103.57L1068.16 1103.54H1067.34L1067.48 1103.64Z" fill="white"/>
<mask id="mask0_7_2" style="mask-type:luminance" maskUnits="userSpaceOnUse" x="204" y="452" width="711" height="652">
<path d="M204.781 452.682H914.773V1103.51H204.781V452.682Z" fill="white"/>
</mask>
<g mask="url(#mask0_7_2)">
<path fill-rule="evenodd" clip-rule="evenodd" d="M302.255 765.315L338.293 702.889L438.558 529.234L444.105 519.6L444.056 519.568L444.445 518.854L449.7 510.599L454.144 504.517L458.637 499.035C459.026 498.565 459.431 498.111 459.837 497.656L467.816 489.434L473.996 483.952C475.682 482.524 477.418 481.162 479.169 479.848L482.948 477.107L487.019 474.366L491.447 471.625L493.815 470.247L504.957 464.635L511.185 462.024C513.748 461.035 516.327 460.126 518.922 459.283L525.166 457.45L535.254 455.163C538.238 454.612 541.222 454.142 544.255 453.785C559.987 451.936 575.557 452.876 590.982 456.526C596.918 457.953 602.724 459.786 608.417 462.008L611.871 463.419L620.581 467.49L628.074 471.69L628.171 471.771L629.242 472.42L633.15 474.902L638.162 478.34L641.99 481.194L643.741 482.605L650.407 488.347L657.008 494.915C657.43 495.386 657.868 495.824 658.273 496.294L660.69 499.035L661.192 499.603L663.463 502.344L665.312 504.695L668.231 508.637L671.297 513.145L674.492 518.254L676.162 521.206L677.573 523.736L895.31 900.822L896.429 902.525L897.938 905.266L899.186 907.731L899.462 908.267L903.192 915.954L903.209 915.987L906.015 922.799C906.193 923.269 906.355 923.707 906.534 924.177L907.572 927.113L910.394 936.52C910.523 936.99 910.637 937.428 910.75 937.898L912.762 947.484C912.843 947.954 912.924 948.392 912.989 948.862L913.832 954.944L914.189 958.447C914.221 958.918 914.254 959.372 914.302 959.826L914.675 969.411C914.675 969.882 914.675 970.336 914.675 970.79L914.254 980.375C914.221 980.846 914.189 981.283 914.156 981.754L913.881 984.495L912.486 994.08C912.388 994.55 912.307 994.988 912.226 995.459L911.48 999.027L908.82 1009.16L908.382 1010.53L907.004 1014.65L905.933 1017.56C904.133 1022.3 901.944 1027.17 899.608 1031.66L892.991 1043.01L889.504 1048.1L886.844 1051.66C886.487 1052.13 886.147 1052.58 885.79 1053.04L877.405 1062.62C876.951 1063.09 876.513 1063.54 876.058 1064L870.301 1069.48C868.728 1070.88 867.138 1072.25 865.468 1073.58L861.981 1076.33L860.148 1077.7C858.867 1078.64 857.569 1079.55 856.272 1080.44L850.157 1084.45L845.146 1087.27L841.156 1089.37C835.106 1092.38 829.397 1094.78 822.926 1096.92C819.763 1097.96 816.601 1098.89 813.422 1099.66L807.291 1101.03C804.55 1101.58 801.793 1102.03 799.036 1102.41C787.228 1103.95 775.664 1103.99 763.727 1102.41H763.711L755.148 1100.98C747.282 1099.42 739.529 1097.13 732.085 1094.18L721.607 1089.51L714.925 1085.94L708.194 1081.82L702.242 1077.72L699.647 1075.77L692.105 1069.5L690.402 1067.92L686.332 1064.02C685.894 1063.54 685.456 1063.11 685.002 1062.64L678.855 1055.79C678.482 1055.32 678.092 1054.88 677.719 1054.41L675.546 1051.67L674.768 1050.67L671.54 1046.19L671.102 1045.56L667.437 1039.91L667.193 1039.54L664.566 1035.21L663.009 1032.47L542.909 824.448L517.316 780.138L511.866 770.537C511.656 770.099 511.429 769.629 511.234 769.175L510.699 767.812L509.223 762.314C509.158 761.86 509.093 761.406 509.012 760.952C508.736 758.681 508.688 756.362 508.915 754.091C508.947 753.637 508.996 753.183 509.077 752.729L509.271 751.529L510.828 745.852C511.007 745.398 511.185 744.928 511.38 744.49L512.029 743.111C512.256 742.657 512.483 742.187 512.742 741.749L515.483 737.629C515.856 737.175 516.229 736.705 516.619 736.267C518.451 734.174 520.641 732.293 523.009 730.785L524.582 729.812C527.096 728.401 529.74 727.346 532.399 726.665H532.416C537.492 725.384 542.731 725.433 547.661 726.665L551.846 728.044C553.678 728.79 555.43 729.698 557.101 730.785C558.366 731.596 559.582 732.52 560.717 733.526C561.674 734.369 562.599 735.277 563.458 736.267C563.848 736.705 564.221 737.159 564.594 737.629L567.335 741.749L598.199 795.189L719.661 1005.55L719.596 1005.58L720.942 1007.78C721.218 1008.26 721.526 1008.71 721.802 1009.16L724.348 1012.75L729.425 1018.75L730.755 1020.13C732.198 1021.57 733.707 1022.93 735.247 1024.23L737.972 1026.4L742.432 1029.52L750.217 1033.86C753.607 1035.5 757.191 1036.87 760.824 1037.95C765.447 1039.35 770.199 1040.25 775.016 1040.69C780.222 1041.18 785.493 1041.08 790.699 1040.42L796.976 1039.31C798.711 1038.92 800.463 1038.47 802.182 1037.94C806.723 1036.56 811.102 1034.72 815.271 1032.45C815.627 1032.26 816 1032.06 816.357 1031.85L817.671 1031.09L821.904 1028.35L823.785 1026.97C824.369 1026.55 824.937 1026.13 825.488 1025.67L828.781 1022.87L830.695 1021.05L834.182 1017.39C834.571 1016.93 834.993 1016.48 835.366 1016.01L838.544 1011.9L840.037 1009.75L841.302 1007.78L843.653 1003.68L845.048 1000.94C845.259 1000.47 845.47 1000.03 845.681 999.562L847.4 995.459L848.811 991.339L849.622 988.598L849.979 987.236L850.595 984.495C850.692 984.024 850.773 983.586 850.871 983.116L851.828 976.272C851.909 975.364 851.974 974.439 852.022 973.531C852.039 973.06 852.055 972.623 852.071 972.152C852.103 971.244 852.12 970.32 852.103 969.411L851.747 962.567C851.665 961.659 851.552 960.734 851.438 959.826C851.357 959.356 851.309 958.902 851.211 958.447L850.725 955.706L848.973 948.862L848.065 946.121C847.903 945.651 847.724 945.197 847.578 944.743C847.059 943.364 846.492 941.985 845.859 940.639L843.832 936.52L843.086 935.157L842.307 933.779L623.776 555.265L621.343 551.162C621.067 550.692 620.808 550.254 620.516 549.784L619.672 548.421C619.364 547.951 619.056 547.497 618.764 547.043L617.807 545.68C617.499 545.21 617.159 544.756 616.818 544.302L613.509 540.198L610.979 537.457L609.163 535.641L605.011 531.959L602.529 529.997L597.323 526.461L594.923 525.034L587.284 521.32L579.061 518.465L572.038 516.859C563.799 515.4 555.284 515.367 546.948 516.859L540.849 518.238C536.016 519.552 531.329 521.401 526.885 523.72L524.371 525.082L521.825 526.461L516.651 530.029L513.602 532.478C510.374 535.235 507.39 538.236 504.714 541.528L498.924 549.751C498.713 550.124 498.486 550.497 498.259 550.87L498.21 550.838L386.836 743.776L374.591 764.99L374.429 765.266L338.391 827.692L318.847 861.524L315.133 867.931L280.295 928.281L277.781 932.643L276.484 934.995L276.451 934.979L276.354 935.141L273.013 941.985C272.818 942.456 272.64 942.894 272.461 943.364C271.926 944.71 271.423 946.105 270.969 947.467L270.272 949.754L269.769 951.603L268.828 955.706C268.65 956.615 268.488 957.539 268.342 958.447C268.277 958.918 268.212 959.356 268.147 959.826C268.034 960.734 267.92 961.659 267.839 962.567L267.563 966.67C267.531 967.579 267.515 968.503 267.515 969.411C267.515 969.882 267.515 970.32 267.531 970.79L267.645 973.531L267.92 977.002L268.374 980.375C268.439 980.846 268.504 981.3 268.601 981.754L269.137 984.495L269.769 987.236L270.126 988.598C270.256 989.068 270.385 989.506 270.515 989.977L272.397 995.459L274.116 999.562C274.327 1000.03 274.537 1000.47 274.765 1000.94L275.43 1002.3C275.657 1002.77 275.916 1003.21 276.143 1003.68L277.7 1006.42L280.246 1010.41L283.393 1014.65L286.977 1018.76C287.415 1019.24 287.853 1019.69 288.323 1020.14C289.751 1021.57 291.243 1022.93 292.784 1024.25L296.254 1026.99L298.541 1028.61L300.244 1029.73L305.061 1032.47C306.975 1033.49 308.889 1034.4 310.835 1035.21C321.669 1039.77 333.476 1041.49 345.17 1040.32C347.441 1040.09 349.711 1039.77 351.966 1039.33L357.723 1037.95L359.459 1037.47L366.709 1034.79C370.017 1033.38 373.326 1031.64 376.391 1029.73L380.462 1026.99L387.128 1021.51L388.555 1020.14L391.167 1017.4L392.529 1015.88L393.518 1014.66L397.557 1009.18L400.103 1005.06C400.622 1004.15 401.125 1003.24 401.611 1002.32L402.941 999.578L403.493 998.346L404.596 995.686L406.574 989.993L407.969 984.511C408.066 984.041 408.164 983.603 408.245 983.132L408.699 980.391L409.202 976.288L409.38 973.92L409.396 973.531L409.494 970.79C409.494 970.32 409.494 969.882 409.494 969.411L409.104 962.567C409.04 962.097 408.991 961.643 408.942 961.188L408.764 959.858L407.726 954.328C407.612 953.858 407.515 953.42 407.401 952.949L406.655 950.208C406.396 949.284 406.104 948.376 405.812 947.467L404.823 944.726L403.72 941.985L401.384 937.136L402.763 939.504L397.313 929.902C397.103 929.465 396.892 928.994 396.697 928.54L396.162 927.178L394.686 921.68C394.605 921.225 394.54 920.771 394.459 920.317C394.183 918.047 394.151 915.727 394.362 913.457C394.394 913.002 394.443 912.548 394.524 912.094L394.718 910.894L396.275 905.217C396.405 904.731 396.632 904.293 396.827 903.855L397.476 902.477C397.686 902.022 397.93 901.552 398.189 901.114L400.93 896.995C401.303 896.54 401.676 896.07 402.066 895.632C403.898 893.54 406.088 891.659 408.456 890.15L410.045 889.177C412.543 887.766 415.186 886.712 417.846 886.031H417.879C422.939 884.749 428.178 884.798 433.108 886.031L437.293 887.409C439.158 888.009 440.877 889.064 442.564 890.15C443.829 890.961 445.029 891.886 446.164 892.891C447.137 893.735 448.062 894.643 448.905 895.632C449.295 896.07 449.684 896.508 450.057 896.995L452.798 901.114L457.307 908.932L458.101 910.472C458.766 911.818 459.415 913.197 460.031 914.576L460.94 916.652L461.815 918.711C462.383 920.074 462.918 921.452 463.437 922.815L464.037 924.502L464.897 926.934L466.211 931.038C466.357 931.508 466.47 931.946 466.616 932.416C467.005 933.779 467.378 935.157 467.735 936.52C467.865 936.99 467.979 937.428 468.076 937.898L469.017 942.002C469.114 942.472 469.211 942.91 469.308 943.38L470.071 947.484L470.898 952.965C470.947 953.436 470.995 953.874 471.044 954.344L471.466 958.447C471.498 958.918 471.53 959.356 471.563 959.826L471.871 965.308V974.893C471.855 975.364 471.839 975.801 471.822 976.272C471.741 977.634 471.676 979.013 471.563 980.375C471.53 980.846 471.498 981.283 471.466 981.754C471.336 983.116 471.19 984.495 471.028 985.857C470.979 986.327 470.93 986.765 470.849 987.236C470.671 988.598 470.476 989.977 470.249 991.339C470.184 991.809 470.103 992.247 470.022 992.718L469.244 996.821L467.995 1002.3L466.892 1006.42L465.643 1010.53C465.497 1011 465.335 1011.43 465.189 1011.9C464.735 1013.27 464.248 1014.65 463.762 1016.01L462.967 1018.08L460.404 1024.25C460.21 1024.72 459.999 1025.16 459.788 1025.63L457.809 1029.73C457.355 1030.65 456.885 1031.56 456.382 1032.47L454.079 1036.65L449.895 1043.43C449.586 1043.9 449.278 1044.34 448.986 1044.81L446.083 1048.92L442.629 1053.42L442.207 1053.94L439.531 1057.14C439.142 1057.61 438.736 1058.06 438.347 1058.52L437.114 1059.88L432.638 1064.57L428.94 1068.1L427.432 1069.48L424.253 1072.22C422.566 1073.65 420.847 1075.01 419.095 1076.33L415.349 1079.07L411.797 1081.47L404.515 1085.93L393.778 1091.41C389.139 1093.5 384.452 1095.33 379.603 1096.89L372.985 1098.84L363.611 1100.99C358.875 1101.9 354.107 1102.57 349.273 1102.96C340.126 1103.7 331.076 1103.52 321.88 1102.37C316.463 1101.69 312.068 1100.83 306.959 1099.63L301.736 1098.24C296.254 1096.68 291.729 1094.99 286.166 1092.71L277.538 1088.65L269.85 1084.32L269.704 1084.24L264.076 1080.67L259.795 1077.69C258.562 1076.8 257.346 1075.89 256.162 1074.95L249.577 1069.46L243.754 1063.98C243.3 1063.53 242.846 1063.07 242.392 1062.6L236.213 1055.76C235.807 1055.29 235.434 1054.85 235.061 1054.38L232.872 1051.62L232.401 1051.01L227.892 1044.78L226.076 1042.04C225.784 1041.57 225.492 1041.13 225.2 1040.66L224.405 1039.38L221.956 1035.18L221.178 1033.82L218.469 1028.54L215.128 1021.21L213.068 1015.98L211.625 1011.87C211.463 1011.4 211.317 1010.96 211.187 1010.49L210.327 1007.75L209.338 1004.22L207.878 998.167C207.765 997.697 207.668 997.243 207.586 996.789L205.965 987.203C205.916 986.733 205.835 986.295 205.786 985.825L204.991 976.239C204.975 975.769 204.959 975.331 204.943 974.861L204.91 965.276C204.943 964.805 204.959 964.351 204.975 963.897L205.592 955.674L205.754 954.312C205.802 953.841 205.867 953.403 205.916 952.933L206.013 952.187L206.986 946.089C207.067 945.618 207.165 945.164 207.23 944.71L209.452 935.125C209.581 934.655 209.711 934.2 209.825 933.746L210.749 930.616L212.939 924.145C213.101 923.674 213.279 923.237 213.458 922.766L215.826 916.927L216.28 915.906L217.074 914.138L218.875 910.424C219.102 909.953 219.329 909.515 219.572 909.045L220.27 907.683L223.189 902.428L223.156 902.395L224.146 900.806L288.291 789.724L302.012 765.963L302.434 765.233L302.255 765.315Z" fill="white"/>
</g>
<path d="M1050.19 719.485L1049.42 719.044C1035.02 710.855 1016.7 715.892 1008.51 730.295L846.04 1016.04C837.851 1030.45 842.888 1048.76 857.291 1056.95L858.067 1057.39C872.47 1065.58 890.785 1060.54 898.975 1046.14L1061.45 760.393C1069.64 745.99 1064.6 727.675 1050.19 719.485Z" fill="white"/>
</g>
<defs>
<clipPath id="clip0_7_2">
<rect width="1557" height="1557" fill="white"/>
</clipPath>
</defs>
</svg>
