<svg xmlns="http://www.w3.org/2000/svg" xmlns:xlink="http://www.w3.org/1999/xlink" width="500" zoomAndPan="magnify" viewBox="0 0 375 374.999991" height="500" preserveAspectRatio="xMidYMid meet" version="1.0"><defs><clipPath id="06f1a06b8d"><path d="M 53.65625 92.890625 L 224.65625 92.890625 L 224.65625 249.640625 L 53.65625 249.640625 Z M 53.65625 92.890625 " clip-rule="nonzero"/></clipPath><clipPath id="3f4431efdf"><path d="M 161 103 L 321 103 L 321 250 L 161 250 Z M 161 103 " clip-rule="nonzero"/></clipPath><clipPath id="136a79d249"><path d="M 205.582031 303.316406 L 126.230469 165.535156 L 252.316406 92.921875 L 331.667969 230.703125 Z M 205.582031 303.316406 " clip-rule="nonzero"/></clipPath><clipPath id="7e663733bd"><path d="M 205.582031 303.316406 L 126.230469 165.535156 L 252.316406 92.921875 L 331.667969 230.703125 Z M 205.582031 303.316406 " clip-rule="nonzero"/></clipPath><clipPath id="346a8c8d82"><path d="M 207 178 L 247 178 L 247 246 L 207 246 Z M 207 178 " clip-rule="nonzero"/></clipPath><clipPath id="49bb547c0f"><path d="M 239.460938 176.988281 L 248.207031 181.511719 L 214.085938 247.539062 L 205.335938 243.019531 Z M 239.460938 176.988281 " clip-rule="nonzero"/></clipPath><clipPath id="38338467ce"><path d="M 243.832031 179.25 C 246.25 180.496094 247.195312 183.46875 245.949219 185.882812 L 216.355469 243.144531 C 215.109375 245.5625 212.136719 246.507812 209.722656 245.261719 C 207.304688 244.011719 206.359375 241.039062 207.605469 238.625 L 237.199219 181.363281 C 238.445312 178.945312 241.417969 178 243.832031 179.25 Z M 243.832031 179.25 " clip-rule="nonzero"/></clipPath></defs><g clip-path="url(#06f1a06b8d)"><path fill="#ffffff" d="M 77.132812 168.1875 L 85.8125 153.152344 L 109.960938 111.328125 L 111.296875 109.007812 L 111.285156 109 L 111.378906 108.828125 L 112.644531 106.839844 L 113.714844 105.375 L 114.796875 104.054688 C 114.890625 103.941406 114.988281 103.832031 115.085938 103.722656 L 117.007812 101.742188 L 118.496094 100.421875 C 118.902344 100.078125 119.320312 99.75 119.742188 99.433594 L 120.652344 98.773438 L 121.632812 98.113281 L 122.699219 97.453125 L 123.269531 97.121094 L 125.953125 95.769531 L 127.453125 95.140625 C 128.070312 94.902344 128.691406 94.683594 129.316406 94.480469 L 130.820312 94.039062 L 133.25 93.488281 C 133.96875 93.355469 134.6875 93.242188 135.417969 93.15625 C 139.207031 92.710938 142.957031 92.9375 146.671875 93.816406 C 148.101562 94.160156 149.5 94.601562 150.871094 95.136719 L 151.703125 95.476562 L 153.800781 96.457031 L 155.605469 97.46875 L 155.628906 97.488281 L 155.886719 97.644531 L 156.828125 98.242188 L 158.035156 99.070312 L 158.957031 99.757812 L 159.378906 100.097656 L 160.984375 101.480469 L 162.574219 103.0625 C 162.675781 103.175781 162.78125 103.28125 162.878906 103.394531 L 163.460938 104.054688 L 163.582031 104.191406 L 164.128906 104.851562 L 164.574219 105.417969 L 165.277344 106.367188 L 166.015625 107.453125 L 166.785156 108.683594 L 167.1875 109.394531 L 167.527344 110.003906 L 219.96875 200.824219 L 220.238281 201.234375 L 220.601562 201.894531 L 220.902344 202.488281 L 220.96875 202.617188 L 221.867188 204.46875 L 221.871094 204.476562 L 222.546875 206.117188 C 222.589844 206.230469 222.628906 206.335938 222.671875 206.449219 L 222.921875 207.15625 L 223.601562 209.421875 C 223.632812 209.535156 223.660156 209.640625 223.6875 209.753906 L 224.171875 212.0625 C 224.191406 212.175781 224.210938 212.28125 224.226562 212.394531 L 224.429688 213.859375 L 224.515625 214.703125 C 224.523438 214.816406 224.53125 214.925781 224.542969 215.035156 L 224.632812 217.34375 C 224.632812 217.457031 224.632812 217.566406 224.632812 217.675781 L 224.53125 219.984375 C 224.523438 220.097656 224.515625 220.203125 224.507812 220.316406 L 224.441406 220.976562 L 224.105469 223.285156 C 224.082031 223.398438 224.0625 223.503906 224.042969 223.617188 L 223.863281 224.476562 L 223.222656 226.917969 L 223.117188 227.246094 L 222.785156 228.238281 L 222.527344 228.941406 C 222.09375 230.082031 221.566406 231.253906 221.003906 232.335938 L 219.410156 235.070312 L 218.570312 236.296875 L 217.929688 237.152344 C 217.84375 237.265625 217.761719 237.375 217.675781 237.484375 L 215.65625 239.792969 C 215.546875 239.90625 215.441406 240.015625 215.332031 240.125 L 213.945312 241.445312 C 213.566406 241.78125 213.183594 242.113281 212.78125 242.433594 L 211.941406 243.09375 L 211.5 243.425781 C 211.191406 243.652344 210.878906 243.871094 210.566406 244.085938 L 209.09375 245.050781 L 207.886719 245.730469 L 206.925781 246.234375 C 205.46875 246.960938 204.09375 247.539062 202.535156 248.054688 C 201.773438 248.304688 201.011719 248.527344 200.246094 248.714844 L 198.769531 249.042969 C 198.109375 249.175781 197.445312 249.285156 196.78125 249.375 C 193.9375 249.746094 191.152344 249.757812 188.277344 249.375 L 188.273438 249.375 L 186.210938 249.03125 C 184.316406 248.65625 182.449219 248.105469 180.65625 247.394531 L 178.132812 246.269531 L 176.523438 245.410156 L 174.902344 244.417969 L 173.46875 243.429688 L 172.84375 242.960938 L 171.027344 241.449219 L 170.617188 241.070312 L 169.636719 240.128906 C 169.53125 240.015625 169.425781 239.910156 169.316406 239.796875 L 167.835938 238.148438 C 167.746094 238.035156 167.652344 237.929688 167.5625 237.816406 L 167.039062 237.15625 L 166.851562 236.914062 L 166.074219 235.835938 L 165.96875 235.683594 L 165.085938 234.324219 L 165.027344 234.234375 L 164.394531 233.191406 L 164.019531 232.53125 L 135.09375 182.429688 L 128.929688 171.757812 L 127.617188 169.445312 C 127.566406 169.339844 127.511719 169.226562 127.464844 169.117188 L 127.335938 168.789062 L 126.980469 167.464844 C 126.964844 167.355469 126.949219 167.246094 126.929688 167.136719 C 126.863281 166.589844 126.851562 166.03125 126.90625 165.484375 C 126.914062 165.375 126.925781 165.265625 126.945312 165.15625 L 126.992188 164.867188 L 127.367188 163.5 C 127.410156 163.390625 127.453125 163.277344 127.5 163.171875 L 127.65625 162.839844 C 127.710938 162.730469 127.765625 162.617188 127.828125 162.511719 L 128.488281 161.519531 C 128.578125 161.410156 128.667969 161.296875 128.761719 161.191406 C 129.203125 160.6875 129.730469 160.234375 130.300781 159.871094 L 130.679688 159.636719 C 131.285156 159.296875 131.921875 159.042969 132.5625 158.878906 L 132.566406 158.878906 C 133.789062 158.570312 135.050781 158.582031 136.238281 158.878906 L 137.246094 159.210938 C 137.6875 159.390625 138.109375 159.609375 138.511719 159.871094 C 138.816406 160.066406 139.109375 160.289062 139.382812 160.53125 C 139.613281 160.734375 139.835938 160.953125 140.042969 161.191406 C 140.136719 161.296875 140.226562 161.40625 140.316406 161.519531 L 140.976562 162.511719 L 148.410156 175.382812 L 177.664062 226.046875 L 177.648438 226.054688 L 177.972656 226.585938 C 178.039062 226.699219 178.113281 226.808594 178.179688 226.917969 L 178.792969 227.78125 L 180.015625 229.226562 L 180.335938 229.558594 C 180.683594 229.90625 181.046875 230.234375 181.417969 230.546875 L 182.074219 231.070312 L 183.148438 231.820312 L 185.023438 232.867188 C 185.839844 233.261719 186.703125 233.589844 187.578125 233.851562 C 188.691406 234.1875 189.835938 234.40625 190.996094 234.511719 C 192.25 234.628906 193.519531 234.605469 194.773438 234.445312 L 196.285156 234.179688 C 196.703125 234.085938 197.125 233.976562 197.539062 233.847656 C 198.632812 233.515625 199.6875 233.074219 200.691406 232.527344 C 200.777344 232.480469 200.867188 232.433594 200.953125 232.382812 L 201.269531 232.199219 L 202.289062 231.539062 L 202.742188 231.207031 C 202.882812 231.105469 203.019531 231.003906 203.152344 230.894531 L 203.945312 230.21875 L 204.40625 229.78125 L 205.246094 228.898438 C 205.339844 228.789062 205.441406 228.679688 205.53125 228.566406 L 206.296875 227.578125 L 206.65625 227.058594 L 206.960938 226.585938 L 207.527344 225.597656 L 207.863281 224.9375 C 207.914062 224.824219 207.964844 224.71875 208.015625 224.605469 L 208.429688 223.617188 L 208.769531 222.625 L 208.964844 221.964844 L 209.050781 221.636719 L 209.199219 220.976562 C 209.222656 220.863281 209.242188 220.757812 209.265625 220.644531 L 209.496094 218.996094 C 209.515625 218.777344 209.53125 218.554688 209.542969 218.335938 C 209.546875 218.222656 209.550781 218.117188 209.554688 218.003906 C 209.5625 217.785156 209.566406 217.5625 209.5625 217.34375 L 209.476562 215.695312 C 209.457031 215.476562 209.429688 215.253906 209.402344 215.035156 C 209.382812 214.921875 209.371094 214.8125 209.347656 214.703125 L 209.230469 214.042969 L 208.808594 212.394531 L 208.589844 211.734375 C 208.550781 211.621094 208.507812 211.511719 208.472656 211.402344 C 208.347656 211.070312 208.210938 210.738281 208.058594 210.414062 L 207.570312 209.421875 L 207.390625 209.09375 L 207.203125 208.761719 L 154.570312 117.597656 L 153.984375 116.609375 C 153.917969 116.496094 153.855469 116.390625 153.785156 116.277344 L 153.582031 115.949219 C 153.507812 115.835938 153.433594 115.726562 153.363281 115.617188 L 153.132812 115.289062 C 153.058594 115.175781 152.976562 115.066406 152.894531 114.957031 L 152.097656 113.96875 L 151.488281 113.308594 L 151.050781 112.871094 L 150.050781 111.984375 L 149.453125 111.511719 L 148.199219 110.660156 L 147.621094 110.316406 L 145.78125 109.421875 L 143.800781 108.734375 L 142.109375 108.347656 C 140.125 107.996094 138.074219 107.988281 136.066406 108.347656 L 134.597656 108.679688 C 133.433594 108.996094 132.304688 109.441406 131.234375 110 L 130.628906 110.328125 L 130.015625 110.660156 L 128.769531 111.519531 L 128.035156 112.109375 C 127.257812 112.773438 126.539062 113.496094 125.894531 114.289062 L 124.5 116.269531 C 124.449219 116.359375 124.394531 116.449219 124.339844 116.539062 L 124.328125 116.53125 L 97.503906 163 L 94.554688 168.109375 L 94.515625 168.175781 L 85.835938 183.210938 L 81.128906 191.359375 L 80.234375 192.902344 L 71.84375 207.4375 L 71.238281 208.488281 L 70.925781 209.054688 L 70.917969 209.050781 L 70.894531 209.089844 L 70.089844 210.738281 C 70.042969 210.851562 70 210.957031 69.957031 211.070312 C 69.828125 211.394531 69.707031 211.730469 69.597656 212.058594 L 69.429688 212.609375 L 69.308594 213.054688 L 69.082031 214.042969 C 69.039062 214.261719 69 214.484375 68.964844 214.703125 C 68.949219 214.816406 68.933594 214.921875 68.917969 215.035156 C 68.890625 215.253906 68.863281 215.476562 68.84375 215.695312 L 68.777344 216.683594 C 68.769531 216.902344 68.765625 217.125 68.765625 217.34375 C 68.765625 217.457031 68.765625 217.5625 68.769531 217.675781 L 68.796875 218.335938 L 68.863281 219.171875 L 68.972656 219.984375 C 68.988281 220.097656 69.003906 220.207031 69.027344 220.316406 L 69.15625 220.976562 L 69.308594 221.636719 L 69.394531 221.964844 C 69.425781 222.078125 69.457031 222.183594 69.488281 222.296875 L 69.941406 223.617188 L 70.355469 224.605469 C 70.40625 224.71875 70.457031 224.824219 70.511719 224.9375 L 70.671875 225.265625 C 70.726562 225.378906 70.789062 225.484375 70.84375 225.597656 L 71.21875 226.257812 L 71.832031 227.21875 L 72.589844 228.238281 L 73.453125 229.230469 C 73.558594 229.34375 73.664062 229.453125 73.777344 229.5625 C 74.121094 229.90625 74.480469 230.234375 74.851562 230.550781 L 75.6875 231.210938 L 76.238281 231.601562 L 76.648438 231.871094 L 77.808594 232.53125 C 78.269531 232.777344 78.730469 232.996094 79.199219 233.191406 C 81.808594 234.289062 84.652344 234.703125 87.46875 234.421875 C 88.015625 234.367188 88.5625 234.289062 89.105469 234.183594 L 90.492188 233.851562 L 90.910156 233.734375 L 92.65625 233.089844 C 93.453125 232.75 94.25 232.332031 94.988281 231.871094 L 95.96875 231.210938 L 97.574219 229.890625 L 97.917969 229.5625 L 98.546875 228.902344 L 98.875 228.535156 L 99.113281 228.242188 L 100.085938 226.921875 L 100.699219 225.929688 C 100.824219 225.710938 100.945312 225.492188 101.0625 225.269531 L 101.382812 224.609375 L 101.515625 224.3125 L 101.78125 223.671875 L 102.257812 222.300781 L 102.59375 220.980469 C 102.617188 220.867188 102.640625 220.761719 102.660156 220.648438 L 102.769531 219.988281 L 102.890625 219 L 102.933594 218.429688 L 102.9375 218.335938 L 102.960938 217.675781 C 102.960938 217.5625 102.960938 217.457031 102.960938 217.34375 L 102.867188 215.695312 C 102.851562 215.582031 102.839844 215.472656 102.828125 215.363281 L 102.785156 215.042969 L 102.535156 213.710938 C 102.507812 213.597656 102.484375 213.492188 102.457031 213.378906 L 102.277344 212.71875 C 102.214844 212.496094 102.144531 212.277344 102.074219 212.058594 L 101.835938 211.398438 L 101.570312 210.738281 L 101.007812 209.570312 L 101.339844 210.140625 L 100.027344 207.828125 C 99.976562 207.722656 99.925781 207.609375 99.878906 207.5 L 99.75 207.171875 L 99.394531 205.847656 C 99.375 205.738281 99.359375 205.628906 99.339844 205.519531 C 99.273438 204.972656 99.265625 204.414062 99.316406 203.867188 C 99.324219 203.757812 99.335938 203.648438 99.355469 203.539062 L 99.402344 203.25 L 99.777344 201.882812 C 99.808594 201.765625 99.863281 201.660156 99.910156 201.554688 L 100.066406 201.222656 C 100.117188 201.113281 100.175781 201 100.238281 200.894531 L 100.898438 199.902344 C 100.988281 199.792969 101.078125 199.679688 101.171875 199.574219 C 101.613281 199.070312 102.140625 198.617188 102.710938 198.253906 L 103.09375 198.019531 C 103.695312 197.679688 104.332031 197.425781 104.972656 197.261719 L 104.980469 197.261719 C 106.199219 196.953125 107.460938 196.964844 108.648438 197.261719 L 109.65625 197.59375 C 110.105469 197.738281 110.519531 197.992188 110.925781 198.253906 C 111.230469 198.449219 111.519531 198.671875 111.792969 198.914062 C 112.027344 199.117188 112.25 199.335938 112.453125 199.574219 C 112.546875 199.679688 112.640625 199.785156 112.730469 199.902344 L 113.390625 200.894531 L 114.476562 202.777344 L 114.667969 203.148438 C 114.828125 203.472656 114.984375 203.804688 115.132812 204.136719 L 115.351562 204.636719 L 115.5625 205.132812 C 115.699219 205.460938 115.828125 205.792969 115.953125 206.121094 L 116.097656 206.527344 L 116.304688 207.113281 L 116.621094 208.101562 C 116.65625 208.214844 116.683594 208.320312 116.71875 208.433594 C 116.8125 208.761719 116.902344 209.09375 116.988281 209.421875 C 117.019531 209.535156 117.046875 209.640625 117.070312 209.753906 L 117.296875 210.742188 C 117.320312 210.855469 117.34375 210.960938 117.367188 211.074219 L 117.550781 212.0625 L 117.75 213.382812 C 117.761719 213.496094 117.773438 213.601562 117.785156 213.714844 L 117.886719 214.703125 C 117.894531 214.816406 117.902344 214.921875 117.910156 215.035156 L 117.984375 216.355469 L 117.984375 218.664062 C 117.980469 218.777344 117.976562 218.882812 117.972656 218.996094 C 117.953125 219.324219 117.9375 219.65625 117.910156 219.984375 C 117.902344 220.097656 117.894531 220.203125 117.886719 220.316406 C 117.855469 220.644531 117.820312 220.976562 117.78125 221.304688 C 117.769531 221.417969 117.757812 221.523438 117.738281 221.636719 C 117.695312 221.964844 117.648438 222.296875 117.59375 222.625 C 117.578125 222.738281 117.558594 222.84375 117.539062 222.957031 L 117.351562 223.945312 L 117.050781 225.265625 L 116.785156 226.257812 L 116.484375 227.246094 C 116.449219 227.359375 116.410156 227.464844 116.375 227.578125 C 116.265625 227.90625 116.148438 228.238281 116.03125 228.566406 L 115.839844 229.066406 L 115.222656 230.550781 C 115.175781 230.664062 115.125 230.769531 115.074219 230.882812 L 114.597656 231.871094 C 114.488281 232.09375 114.375 232.3125 114.253906 232.53125 L 113.699219 233.539062 L 112.691406 235.171875 C 112.617188 235.285156 112.542969 235.390625 112.472656 235.503906 L 111.773438 236.492188 L 110.941406 237.578125 L 110.839844 237.703125 L 110.195312 238.472656 C 110.101562 238.585938 110.003906 238.695312 109.910156 238.804688 L 109.613281 239.132812 L 108.535156 240.261719 L 107.644531 241.113281 L 107.28125 241.445312 L 106.515625 242.105469 C 106.109375 242.449219 105.695312 242.777344 105.273438 243.09375 L 104.371094 243.753906 L 103.515625 244.332031 L 101.761719 245.40625 L 99.175781 246.726562 C 98.058594 247.230469 96.929688 247.671875 95.761719 248.046875 L 94.167969 248.515625 L 91.910156 249.035156 C 90.769531 249.253906 89.621094 249.414062 88.457031 249.507812 C 86.253906 249.6875 84.074219 249.644531 81.859375 249.367188 C 80.554688 249.203125 79.496094 248.996094 78.265625 248.707031 L 77.007812 248.371094 C 75.6875 247.996094 74.597656 247.589844 73.257812 247.039062 L 71.179688 246.0625 L 69.328125 245.019531 L 69.292969 245 L 67.9375 244.140625 L 66.90625 243.421875 C 66.609375 243.207031 66.316406 242.988281 66.03125 242.761719 L 64.445312 241.441406 L 63.042969 240.121094 C 62.933594 240.011719 62.824219 239.902344 62.714844 239.789062 L 61.226562 238.140625 C 61.128906 238.027344 61.039062 237.921875 60.949219 237.808594 L 60.421875 237.144531 L 60.308594 236.996094 L 59.222656 235.496094 L 58.785156 234.835938 C 58.714844 234.722656 58.644531 234.617188 58.574219 234.503906 L 58.382812 234.195312 L 57.792969 233.183594 L 57.605469 232.855469 L 56.953125 231.585938 L 56.148438 229.820312 L 55.652344 228.558594 L 55.304688 227.570312 C 55.265625 227.457031 55.230469 227.351562 55.199219 227.238281 L 54.992188 226.578125 L 54.753906 225.726562 L 54.402344 224.269531 C 54.375 224.15625 54.351562 224.046875 54.332031 223.9375 L 53.941406 221.628906 C 53.929688 221.515625 53.910156 221.410156 53.898438 221.296875 L 53.707031 218.988281 C 53.703125 218.875 53.699219 218.769531 53.695312 218.65625 L 53.6875 216.347656 C 53.695312 216.234375 53.699219 216.125 53.703125 216.015625 L 53.851562 214.035156 L 53.890625 213.707031 C 53.902344 213.59375 53.917969 213.488281 53.929688 213.375 L 53.953125 213.195312 L 54.1875 211.726562 C 54.207031 211.613281 54.230469 211.503906 54.246094 211.394531 L 54.78125 209.085938 C 54.8125 208.972656 54.84375 208.863281 54.871094 208.753906 L 55.09375 208 L 55.621094 206.441406 C 55.660156 206.328125 55.703125 206.222656 55.746094 206.109375 L 56.316406 204.703125 L 56.425781 204.457031 L 56.617188 204.03125 L 57.050781 203.136719 C 57.105469 203.023438 57.160156 202.917969 57.21875 202.804688 L 57.386719 202.476562 L 58.089844 201.210938 L 58.082031 201.203125 L 58.320312 200.820312 L 73.769531 174.066406 L 77.074219 168.34375 L 77.175781 168.167969 Z M 77.132812 168.1875 " fill-opacity="1" fill-rule="evenodd"/></g><g clip-path="url(#3f4431efdf)"><g clip-path="url(#136a79d249)"><g clip-path="url(#7e663733bd)"><path fill="#ffffff" d="M 255.328125 249.488281 L 239.195312 249.472656 L 194.316406 249.421875 L 191.828125 249.421875 L 191.824219 249.4375 L 191.734375 249.4375 L 191.644531 249.441406 L 189.457031 249.34375 L 187.777344 249.160156 L 186.214844 248.902344 C 186.082031 248.878906 185.945312 248.851562 185.8125 248.820312 L 183.328125 248.195312 L 181.574219 247.609375 C 181.109375 247.4375 180.648438 247.253906 180.199219 247.0625 L 179.246094 246.636719 L 178.257812 246.152344 L 177.230469 245.597656 L 176.703125 245.292969 L 174.367188 243.761719 L 173.164062 242.84375 C 172.6875 242.457031 172.222656 242.058594 171.769531 241.648438 L 170.71875 240.644531 L 169.144531 238.941406 C 168.703125 238.425781 168.28125 237.894531 167.875 237.347656 C 165.757812 234.503906 164.199219 231.378906 163.1875 227.980469 C 162.796875 226.667969 162.507812 225.339844 162.300781 223.984375 L 162.1875 223.160156 L 162.007812 221.015625 L 161.984375 219.09375 L 161.988281 219.0625 L 161.996094 218.785156 L 162.039062 217.746094 L 162.144531 216.394531 L 162.273438 215.332031 L 162.347656 214.832031 L 162.71875 212.898438 L 163.257812 210.886719 C 163.300781 210.75 163.335938 210.617188 163.382812 210.488281 L 163.644531 209.710938 L 163.699219 209.550781 L 163.976562 208.804688 L 164.222656 208.179688 L 164.664062 207.175781 L 165.195312 206.078125 L 165.832031 204.886719 L 166.214844 204.234375 L 166.546875 203.675781 L 215.367188 119.324219 L 215.574219 118.914062 L 215.9375 118.316406 L 216.273438 117.800781 L 216.34375 117.683594 L 217.421875 116.105469 L 217.425781 116.097656 L 218.433594 114.789062 C 218.503906 114.703125 218.574219 114.621094 218.640625 114.535156 L 219.097656 114.007812 L 220.605469 112.40625 C 220.683594 112.332031 220.757812 112.261719 220.832031 112.183594 L 222.46875 110.722656 C 222.550781 110.65625 222.628906 110.589844 222.707031 110.527344 L 223.796875 109.683594 L 224.4375 109.222656 C 224.523438 109.164062 224.609375 109.105469 224.691406 109.050781 L 226.507812 107.90625 C 226.597656 107.851562 226.6875 107.800781 226.773438 107.75 L 228.679688 106.757812 C 228.773438 106.714844 228.867188 106.671875 228.960938 106.628906 L 229.519531 106.371094 L 231.539062 105.574219 C 231.636719 105.539062 231.734375 105.507812 231.832031 105.46875 L 232.609375 105.214844 L 234.871094 104.601562 L 235.1875 104.53125 L 236.136719 104.339844 L 236.824219 104.222656 C 237.941406 104.042969 239.132812 103.921875 240.261719 103.871094 L 243.207031 103.890625 L 244.582031 103.996094 L 245.570312 104.113281 C 245.699219 104.128906 245.828125 104.148438 245.953125 104.167969 L 248.75 104.722656 C 248.890625 104.757812 249.03125 104.792969 249.167969 104.828125 L 250.875 105.332031 C 251.320312 105.480469 251.765625 105.636719 252.210938 105.808594 L 253.132812 106.179688 L 253.601562 106.382812 C 253.929688 106.527344 254.25 106.675781 254.566406 106.828125 L 256.027344 107.570312 L 257.136719 108.222656 L 257.984375 108.765625 C 259.246094 109.601562 260.351562 110.441406 261.488281 111.457031 C 262.042969 111.953125 262.574219 112.464844 263.082031 112.996094 L 264.03125 114.03125 C 264.445312 114.5 264.839844 114.984375 265.21875 115.476562 C 266.839844 117.59375 268.136719 119.835938 269.164062 122.328125 L 269.167969 122.332031 L 269.847656 124.148438 C 270.421875 125.851562 270.84375 127.605469 271.105469 129.382812 L 271.371094 131.933594 L 271.421875 133.632812 L 271.378906 135.394531 L 271.242188 137.007812 L 271.15625 137.730469 L 270.78125 139.894531 L 270.667969 140.402344 L 270.363281 141.625 C 270.324219 141.765625 270.285156 141.898438 270.246094 142.039062 L 269.601562 143.992188 C 269.554688 144.117188 269.511719 144.242188 269.464844 144.367188 L 269.175781 145.09375 L 269.066406 145.359375 L 268.558594 146.484375 L 268.484375 146.640625 L 267.800781 147.984375 L 267.753906 148.074219 L 267.207031 149.066406 L 266.851562 149.675781 L 239.917969 196.207031 L 234.183594 206.121094 L 232.929688 208.25 C 232.867188 208.339844 232.800781 208.433594 232.734375 208.523438 L 232.53125 208.777344 L 231.628906 209.679688 C 231.546875 209.746094 231.46875 209.808594 231.386719 209.875 C 230.980469 210.179688 230.53125 210.449219 230.070312 210.660156 C 229.976562 210.703125 229.882812 210.742188 229.785156 210.78125 L 229.535156 210.875 L 228.257812 211.207031 C 228.148438 211.222656 228.039062 211.242188 227.929688 211.253906 L 227.59375 211.28125 C 227.476562 211.289062 227.359375 211.296875 227.246094 211.296875 L 226.144531 211.222656 C 226.011719 211.203125 225.878906 211.183594 225.75 211.15625 C 225.140625 211.035156 224.53125 210.820312 223.972656 210.53125 L 223.609375 210.328125 C 223.054688 210.003906 222.554688 209.609375 222.125 209.167969 L 222.125 209.164062 C 221.308594 208.320312 220.734375 207.300781 220.421875 206.207031 L 220.222656 205.242188 C 220.160156 204.804688 220.140625 204.359375 220.164062 203.914062 C 220.183594 203.578125 220.226562 203.242188 220.292969 202.910156 C 220.351562 202.625 220.421875 202.34375 220.519531 202.070312 C 220.558594 201.945312 220.605469 201.824219 220.65625 201.695312 L 221.148438 200.707031 L 228.066406 188.75 L 255.300781 141.695312 L 255.3125 141.699219 L 255.59375 141.195312 C 255.652344 141.089844 255.707031 140.976562 255.761719 140.871094 L 256.175781 139.976562 L 256.769531 138.324219 L 256.886719 137.910156 C 257.007812 137.472656 257.105469 137.027344 257.183594 136.582031 L 257.300781 135.8125 L 257.40625 134.597656 L 257.378906 132.605469 C 257.316406 131.761719 257.183594 130.914062 256.988281 130.089844 C 256.742188 129.035156 256.386719 128.011719 255.9375 127.03125 C 255.445312 125.964844 254.839844 124.953125 254.128906 124.019531 L 253.214844 122.925781 C 252.941406 122.632812 252.660156 122.34375 252.363281 122.066406 C 251.589844 121.34375 250.742188 120.699219 249.839844 120.144531 C 249.761719 120.097656 249.683594 120.046875 249.601562 120 L 249.304688 119.832031 L 248.300781 119.316406 L 247.824219 119.101562 C 247.679688 119.039062 247.53125 118.976562 247.382812 118.917969 L 246.472656 118.59375 L 245.902344 118.425781 L 244.804688 118.15625 C 244.671875 118.132812 244.539062 118.105469 244.40625 118.082031 L 243.253906 117.925781 L 242.667969 117.875 L 242.148438 117.847656 L 241.085938 117.851562 L 240.402344 117.890625 C 240.285156 117.898438 240.175781 117.90625 240.0625 117.917969 L 239.074219 118.046875 L 238.117188 118.230469 L 237.496094 118.378906 L 237.191406 118.464844 L 236.589844 118.648438 C 236.492188 118.683594 236.394531 118.714844 236.292969 118.75 L 234.859375 119.328125 C 234.671875 119.414062 234.488281 119.507812 234.304688 119.597656 C 234.214844 119.644531 234.125 119.691406 234.03125 119.738281 C 233.851562 119.835938 233.671875 119.933594 233.496094 120.039062 L 232.207031 120.875 C 232.042969 120.992188 231.875 121.117188 231.710938 121.242188 C 231.628906 121.308594 231.546875 121.371094 231.46875 121.4375 L 230.996094 121.839844 L 229.859375 122.941406 L 229.429688 123.425781 C 229.359375 123.507812 229.289062 123.59375 229.21875 123.675781 C 229.007812 123.929688 228.804688 124.195312 228.613281 124.464844 L 228.042969 125.320312 L 227.859375 125.617188 L 227.683594 125.921875 L 178.675781 210.589844 L 178.148438 211.519531 C 178.089844 211.625 178.035156 211.726562 177.976562 211.832031 L 177.804688 212.152344 C 177.75 212.261719 177.691406 212.371094 177.640625 212.480469 L 177.480469 212.816406 C 177.425781 212.929688 177.375 213.046875 177.324219 213.164062 L 176.898438 214.265625 L 176.648438 215.0625 L 176.5 215.617188 L 176.25 216.832031 L 176.148438 217.535156 L 176.039062 218.9375 L 176.03125 219.5625 L 176.164062 221.457031 L 176.53125 223.371094 L 177.003906 224.914062 C 177.640625 226.675781 178.585938 228.328125 179.808594 229.78125 L 180.753906 230.808594 C 181.550781 231.601562 182.433594 232.300781 183.378906 232.90625 L 183.921875 233.242188 L 184.472656 233.582031 L 185.746094 234.1875 L 186.558594 234.503906 C 187.457031 234.824219 188.371094 235.066406 189.308594 235.21875 L 191.550781 235.421875 C 191.648438 235.421875 191.746094 235.425781 191.84375 235.425781 L 191.839844 235.4375 L 241.703125 235.492188 L 247.1875 235.496094 L 247.261719 235.496094 L 263.394531 235.511719 L 272.136719 235.523438 L 273.796875 235.527344 L 289.394531 235.542969 L 290.519531 235.542969 L 291.121094 235.535156 L 291.121094 235.542969 L 291.164062 235.542969 L 292.863281 235.425781 C 292.976562 235.410156 293.082031 235.398438 293.191406 235.378906 C 293.515625 235.332031 293.839844 235.273438 294.15625 235.210938 L 294.675781 235.089844 L 295.089844 234.980469 L 295.992188 234.703125 C 296.191406 234.636719 296.386719 234.566406 296.578125 234.492188 C 296.675781 234.453125 296.769531 234.417969 296.867188 234.375 C 297.058594 234.300781 297.25 234.214844 297.433594 234.132812 L 298.261719 233.722656 C 298.441406 233.628906 298.625 233.53125 298.800781 233.429688 C 298.890625 233.378906 298.976562 233.328125 299.0625 233.273438 L 299.582031 232.945312 L 300.222656 232.503906 L 300.832031 232.039062 C 300.914062 231.972656 300.992188 231.90625 301.070312 231.839844 L 301.542969 231.429688 L 302.003906 231 L 302.226562 230.777344 C 302.304688 230.703125 302.375 230.628906 302.449219 230.550781 L 303.304688 229.574219 L 303.910156 228.78125 C 303.976562 228.6875 304.039062 228.597656 304.105469 228.503906 L 304.292969 228.21875 C 304.359375 228.121094 304.417969 228.023438 304.480469 227.925781 L 304.839844 227.320312 L 305.328125 226.382812 L 305.796875 225.296875 L 306.195312 224.140625 C 306.238281 224.003906 306.277344 223.867188 306.3125 223.726562 C 306.429688 223.292969 306.53125 222.847656 306.613281 222.402344 L 306.757812 221.421875 L 306.816406 220.800781 L 306.84375 220.34375 L 306.835938 219.101562 C 306.820312 218.617188 306.78125 218.144531 306.722656 217.675781 C 306.394531 215.066406 305.410156 212.585938 303.878906 210.445312 C 303.578125 210.03125 303.265625 209.628906 302.925781 209.238281 L 302.015625 208.273438 L 301.726562 207.996094 L 300.398438 206.886719 C 299.757812 206.402344 299.046875 205.957031 298.335938 205.574219 L 297.351562 205.089844 L 295.542969 204.40625 L 295.117188 204.285156 L 294.292969 204.082031 L 293.84375 203.992188 L 293.5 203.933594 L 291.984375 203.761719 L 290.902344 203.726562 C 290.667969 203.730469 290.4375 203.734375 290.203125 203.746094 L 289.523438 203.792969 L 289.21875 203.824219 L 288.582031 203.90625 L 287.257812 204.160156 L 286.035156 204.5 C 285.9375 204.53125 285.839844 204.5625 285.742188 204.601562 L 285.15625 204.816406 L 284.304688 205.179688 L 283.824219 205.410156 L 283.746094 205.449219 L 283.207031 205.738281 C 283.117188 205.789062 283.03125 205.839844 282.941406 205.890625 L 281.65625 206.730469 C 281.570312 206.792969 281.488281 206.855469 281.40625 206.917969 L 281.167969 207.101562 L 280.210938 207.917969 C 280.132812 207.992188 280.058594 208.0625 279.980469 208.132812 L 279.53125 208.585938 C 279.382812 208.738281 279.238281 208.898438 279.09375 209.058594 L 278.671875 209.554688 L 278.265625 210.074219 L 277.582031 211.066406 L 277.886719 210.539062 L 276.636719 212.664062 C 276.574219 212.757812 276.507812 212.851562 276.441406 212.941406 L 276.238281 213.195312 L 275.335938 214.09375 C 275.253906 214.160156 275.175781 214.222656 275.09375 214.289062 C 274.6875 214.597656 274.238281 214.863281 273.777344 215.074219 C 273.683594 215.121094 273.589844 215.160156 273.492188 215.199219 L 273.238281 215.292969 L 271.964844 215.625 C 271.855469 215.652344 271.742188 215.65625 271.636719 215.667969 L 271.296875 215.699219 C 271.183594 215.707031 271.066406 215.710938 270.953125 215.714844 L 269.847656 215.640625 C 269.71875 215.621094 269.585938 215.597656 269.457031 215.574219 C 268.847656 215.449219 268.238281 215.238281 267.679688 214.945312 L 267.316406 214.746094 C 266.757812 214.417969 266.261719 214.023438 265.832031 213.582031 L 265.832031 213.578125 C 265.015625 212.738281 264.441406 211.71875 264.128906 210.625 L 263.925781 209.660156 C 263.835938 209.230469 263.847656 208.777344 263.871094 208.332031 C 263.886719 207.996094 263.933594 207.65625 264 207.324219 C 264.058594 207.042969 264.128906 206.761719 264.222656 206.488281 C 264.265625 206.363281 264.3125 206.238281 264.363281 206.113281 L 264.855469 205.121094 L 265.867188 203.371094 L 266.078125 203.046875 C 266.265625 202.765625 266.457031 202.488281 266.65625 202.210938 L 266.957031 201.804688 L 267.261719 201.40625 C 267.460938 201.140625 267.667969 200.886719 267.875 200.632812 L 268.132812 200.328125 L 268.511719 199.890625 L 269.160156 199.175781 C 269.234375 199.097656 269.308594 199.023438 269.382812 198.941406 C 269.601562 198.714844 269.828125 198.488281 270.054688 198.265625 C 270.128906 198.191406 270.203125 198.121094 270.28125 198.046875 L 270.972656 197.40625 C 271.054688 197.335938 271.128906 197.265625 271.207031 197.195312 L 271.917969 196.589844 L 272.890625 195.816406 C 272.976562 195.757812 273.054688 195.695312 273.140625 195.632812 L 273.890625 195.09375 C 273.976562 195.035156 274.058594 194.980469 274.144531 194.921875 L 275.175781 194.25 L 277.035156 193.179688 C 277.125 193.128906 277.214844 193.085938 277.308594 193.035156 C 277.582031 192.898438 277.855469 192.757812 278.132812 192.625 C 278.226562 192.582031 278.316406 192.539062 278.410156 192.492188 C 278.691406 192.363281 278.972656 192.238281 279.253906 192.117188 C 279.351562 192.074219 279.441406 192.035156 279.539062 191.996094 C 279.828125 191.878906 280.113281 191.765625 280.40625 191.65625 C 280.503906 191.617188 280.597656 191.582031 280.699219 191.546875 L 281.582031 191.242188 L 282.785156 190.871094 L 283.707031 190.625 L 284.640625 190.40625 C 284.746094 190.382812 284.851562 190.363281 284.957031 190.339844 C 285.273438 190.277344 285.59375 190.21875 285.914062 190.160156 L 286.402344 190.082031 L 287.886719 189.890625 C 288 189.875 288.109375 189.867188 288.222656 189.855469 L 289.242188 189.78125 C 289.472656 189.765625 289.699219 189.753906 289.933594 189.75 L 291.003906 189.730469 L 292.785156 189.785156 C 292.90625 189.792969 293.027344 189.800781 293.152344 189.808594 L 294.273438 189.914062 L 295.53125 190.078125 L 295.679688 190.105469 L 296.601562 190.265625 C 296.734375 190.289062 296.867188 190.316406 297 190.34375 L 297.402344 190.425781 L 298.808594 190.769531 L 299.910156 191.09375 L 300.34375 191.234375 L 301.230469 191.542969 C 301.695312 191.710938 302.152344 191.894531 302.605469 192.085938 L 303.554688 192.507812 L 304.417969 192.925781 L 306.09375 193.839844 L 308.355469 195.3125 C 309.28125 195.976562 310.160156 196.683594 311.003906 197.449219 L 312.121094 198.515625 L 313.585938 200.09375 C 314.292969 200.910156 314.953125 201.761719 315.566406 202.652344 C 316.734375 204.34375 317.710938 206.121094 318.511719 208.03125 C 318.988281 209.160156 319.3125 210.109375 319.648438 211.234375 L 319.960938 212.398438 C 320.269531 213.636719 320.453125 214.703125 320.628906 216.039062 L 320.804688 218.167969 L 320.824219 220.140625 L 320.824219 220.179688 L 320.761719 221.667969 L 320.660156 222.832031 C 320.625 223.171875 320.585938 223.507812 320.535156 223.84375 L 320.207031 225.734375 L 319.792969 227.472656 C 319.757812 227.609375 319.71875 227.753906 319.679688 227.890625 L 319.042969 229.855469 C 318.996094 229.984375 318.953125 230.105469 318.902344 230.230469 L 318.613281 230.964844 L 318.546875 231.125 L 317.839844 232.695312 L 317.511719 233.355469 C 317.457031 233.464844 317.402344 233.570312 317.34375 233.675781 L 317.183594 233.976562 L 316.644531 234.921875 L 316.464844 235.222656 L 315.746094 236.339844 L 314.695312 237.804688 L 313.910156 238.789062 L 313.273438 239.527344 C 313.203125 239.609375 313.132812 239.6875 313.058594 239.765625 L 312.625 240.238281 L 312.046875 240.828125 L 311.035156 241.785156 C 310.957031 241.859375 310.878906 241.925781 310.800781 241.996094 L 309.121094 243.378906 C 309.039062 243.441406 308.960938 243.503906 308.878906 243.566406 L 307.105469 244.792969 C 307.019531 244.851562 306.933594 244.902344 306.847656 244.957031 L 304.988281 246.035156 C 304.894531 246.082031 304.804688 246.128906 304.714844 246.175781 L 303.050781 246.972656 L 302.765625 247.09375 C 302.671875 247.136719 302.578125 247.175781 302.484375 247.21875 L 302.328125 247.28125 L 301.035156 247.777344 C 300.933594 247.808594 300.835938 247.84375 300.742188 247.878906 L 298.632812 248.519531 C 298.527344 248.546875 298.425781 248.574219 298.324219 248.601562 L 297.613281 248.773438 L 296.113281 249.070312 C 296.003906 249.089844 295.898438 249.105469 295.789062 249.125 L 294.390625 249.316406 L 294.140625 249.347656 L 293.710938 249.386719 L 292.789062 249.453125 C 292.671875 249.460938 292.5625 249.464844 292.445312 249.472656 L 292.101562 249.488281 L 290.753906 249.507812 L 290.753906 249.519531 L 290.335938 249.507812 L 261.625 249.472656 L 255.484375 249.464844 L 255.296875 249.464844 Z M 255.328125 249.488281 " fill-opacity="1" fill-rule="evenodd"/></g></g></g><g clip-path="url(#346a8c8d82)"><g clip-path="url(#49bb547c0f)"><g clip-path="url(#38338467ce)"><path fill="#ffffff" d="M 239.460938 176.988281 L 248.207031 181.511719 L 214.101562 247.507812 L 205.355469 242.984375 Z M 239.460938 176.988281 " fill-opacity="1" fill-rule="nonzero"/></g></g></g></svg>